<svg width="18" height="18" viewBox="0 0 18 18" fill="none" xmlns="http://www.w3.org/2000/svg">
<path d="M11.3085 5.11528L11.0985 4.91528C10.5785 4.37528 10.6685 4.12528 11.1785 3.61528L13.8985 0.865283C14.7085 0.0452829 14.8585 -0.344717 15.6285 0.385283L15.8385 0.585283L11.3085 5.11528ZM11.8385 5.56528L16.2385 1.16528C16.9385 2.10528 18.5785 4.63528 17.7685 6.50528C17.0385 8.17528 16.6785 8.25528 15.7685 9.50528C13.9185 11.6153 11.5885 13.8753 9.76851 15.5753C8.50851 16.4853 8.45851 16.9053 6.76851 17.5753C4.96851 18.2853 2.36851 16.6853 1.38851 16.0153L5.78851 11.6153L6.96851 13.2353C7.30851 13.6953 8.16851 13.1753 8.76851 12.5753C9.80851 11.5253 11.9485 9.39528 12.7685 8.50528C13.3585 7.91528 13.8885 7.05528 13.4285 6.70528L11.8385 5.56528ZM0.81851 15.6153L0.60851 15.4053C-0.07149 14.6653 0.31851 14.5053 1.12851 13.7053L3.86851 10.9853C4.37851 10.4953 4.61851 10.3853 5.13851 10.8753L5.33851 11.0853L0.81851 15.6153Z" fill="white"/>
</svg>
